# xmcd
#
# Track frame offsets:
#	150
#	11388
#	26392
#	44443
#	52702
#	65964
#	79138
#	107713
#	118291
#	133971
#	146146
#	154136
#	168053
#	183441
#	190346
#	205074
#	220288
#	234085
#	247222
#	261429
#	277493
#
# Disc length: 3852 seconds
#
# Revision: 4
# Processed by: cddbd v1.5.2PL0 Copyright (c) Steve Scherf et al.
# Submitted via: EasyCDDAExtractor 16.0.6.1
#
DISCID=400f0a15
DTITLE=Flying Burrito Brothers - R-694 Out Of The Blue [CD2)
DYEAR=1996
DGENRE=Country
TTITLE0=Juanita
TTITLE1=Image Of Me
TTITLE2=Farther Along
TTITLE3=If You Gotta Go
TTITLE4=Bony Moronie
TTITLE5=Six Days On The Road
TTITLE6=Wild Horses
TTITLE7=Down In The Churchyard
TTITLE8=Wake Up Little Susie (live)
TTITLE9=Pick Me Up On Your Way Down
TTITLE10=Just Because
TTITLE11=Lodi
TTITLE12=Money Honey (live)
TTITLE13=I Shall Be Released
TTITLE14=White Line Fever
TTITLE15=Ain't That A Lot Of Love (live)
TTITLE16=Don't Fight It (live)
TTITLE17=Losing Game (live)
TTITLE18=Tried So Hard
TTITLE19=All Alone
TTITLE20=100 Years From Now (live)
EXTD=
EXTT0=
EXTT1=
EXTT2=
EXTT3=
EXTT4=
EXTT5=
EXTT6=
EXTT7=
EXTT8=
EXTT9=
EXTT10=
EXTT11=
EXTT12=
EXTT13=
EXTT14=
EXTT15=
EXTT16=
EXTT17=
EXTT18=
EXTT19=
EXTT20=
PLAYORDER=
